<svg width="101" height="42" viewBox="0 0 101 42" fill="none" xmlns="http://www.w3.org/2000/svg">
<g filter="url(#filter0_d_1436_9261)">
<path d="M80.3794 4.25586H73.3722C72.9396 4.25586 72.5889 4.60658 72.5889 5.03922V10.173C72.5889 10.6057 72.9396 10.9564 73.3722 10.9564H80.3794C80.8121 10.9564 81.1628 10.6057 81.1628 10.173V5.03922C81.1628 4.60658 80.8121 4.25586 80.3794 4.25586Z" fill="#0E55A4"/>
</g>
<path d="M29.1193 11.4741H26.3907C26.0098 11.4741 25.8182 11.6849 25.8182 12.1066V27.1079C25.8182 27.2996 25.7487 27.3954 25.6098 27.3954H25.375C25.2193 27.3954 25.1067 27.3283 25.0372 27.1942L15.3661 13.1702C15.1241 12.8061 14.9061 12.5138 14.7169 12.2934C14.5252 12.073 14.3264 11.9005 14.118 11.776C13.9096 11.6514 13.6676 11.5699 13.3897 11.5316C13.1118 11.4933 12.7669 11.4741 12.35 11.4741H10.0622C9.26446 11.4741 8.67514 11.6801 8.29423 12.0922C7.91333 12.5042 7.72168 13.2948 7.72168 14.4639V30.9577C7.72168 31.3793 7.92052 31.5901 8.32058 31.5901H11.0492C11.4301 31.5901 11.6217 31.3793 11.6217 30.9577V15.9563C11.6217 15.7647 11.6912 15.6688 11.8302 15.6688H12.0649C12.1871 15.6688 12.2997 15.7359 12.4027 15.8701L22.0978 29.894C22.3589 30.2773 22.5865 30.5792 22.7877 30.7996C22.9866 31.02 23.1902 31.1877 23.3986 31.3027C23.607 31.4177 23.8442 31.4943 24.1125 31.5326C24.3808 31.571 24.7138 31.5901 25.1139 31.5901H27.349C28.1467 31.5901 28.7361 31.3841 29.117 30.9721C29.4979 30.56 29.6895 29.7695 29.6895 28.6004V12.1066C29.6895 11.6849 29.4979 11.4741 29.117 11.4741H29.1193Z" fill="#C6FA58"/>
<path d="M6.63086 21.0107V21.2599L6.71471 21.0826C6.68596 21.061 6.65961 21.0347 6.63086 21.0131V21.0107Z" fill="#C6FA58"/>
<path d="M35.4001 28.6995V22.447C35.7378 22.2888 35.975 21.9463 35.975 21.5486C35.975 21.1509 35.7402 20.8084 35.4001 20.6502V13.6023C36.3727 13.4586 37.1201 12.6249 37.1201 11.6116C37.1201 10.5 36.217 9.59685 35.1054 9.59685C34.334 9.59685 33.668 10.0305 33.3278 10.6653L27.5856 7.57974L26.6129 7.05749C26.6345 6.97604 26.6489 6.8898 26.6489 6.80116C26.6489 6.25496 26.2057 5.80938 25.6571 5.80938C25.578 5.80938 25.5014 5.81896 25.4271 5.83812C25.2259 5.88604 25.0486 5.99623 24.9144 6.14476L19.9076 3.45448C20.0753 3.12868 20.1711 2.76215 20.1711 2.36927C20.1711 1.06126 19.1098 0 17.8018 0C16.4938 0 15.4326 1.06126 15.4326 2.36927C15.4326 2.70705 15.5044 3.02567 15.6314 3.31554L10.9959 6.23101C10.8354 6.12081 10.6437 6.05613 10.4353 6.05613C9.88911 6.05613 9.44353 6.49932 9.44353 7.04791C9.44353 7.10062 9.44832 7.15093 9.45551 7.19884L3.95756 10.6581C3.56708 10.2221 3.00171 9.94422 2.36927 9.94422C1.19062 9.94422 0.237166 10.9001 0.237166 12.0763C0.237166 13.1328 1.00616 14.0072 2.01471 14.1773V19.9172C1.61704 20.0465 1.33196 20.4203 1.33196 20.8587C1.33196 21.2971 1.61944 21.6708 2.01471 21.8001V28.1054C0.8744 28.2779 0 29.2577 0 30.4459C0 31.7539 1.06126 32.8152 2.36927 32.8152C3.01848 32.8152 3.6078 32.5541 4.03422 32.1301L8.45893 34.8491C8.45414 34.885 8.45414 34.9233 8.45414 34.9617C8.45414 35.5534 8.93566 36.0349 9.52738 36.0349C9.74298 36.0349 9.94182 35.9702 10.1095 35.8624L15.744 39.3241C15.6985 39.499 15.6721 39.6786 15.6721 39.8679C15.6721 41.0465 16.628 42 17.8042 42C18.9805 42 19.9363 41.0442 19.9363 39.8679C19.9363 39.7313 19.922 39.5948 19.898 39.4654L26.5315 35.9535C26.7135 36.1499 26.9699 36.2721 27.2573 36.2721C27.8036 36.2721 28.2491 35.8289 28.2491 35.2803C28.2491 35.2036 28.2396 35.1294 28.2228 35.0575L33.1458 32.4487C33.577 33.0308 34.2669 33.4093 35.0479 33.4093C36.3559 33.4093 37.4172 32.348 37.4172 31.04C37.4172 29.8518 36.5428 28.872 35.4025 28.6995H35.4001ZM19.5219 3.99829L24.6677 6.77721C24.6677 6.77721 24.6677 6.79398 24.6677 6.80116C24.6677 6.96407 24.7084 7.11978 24.7779 7.25633L21.2755 9.19439C21.0072 8.88535 20.6167 8.68412 20.1735 8.68412C20.1184 8.68412 20.0633 8.68891 20.0106 8.6937L18.7457 4.5397C19.0404 4.41273 19.3039 4.22827 19.5219 3.99829ZM11.4247 7.04791C11.4247 6.96886 11.4151 6.8922 11.396 6.81793L16.0099 3.91684C16.1608 4.09172 16.3357 4.24264 16.5298 4.36721L12.9268 9.6807C12.692 9.52019 12.4069 9.42676 12.1003 9.42676C11.9685 9.42676 11.8415 9.44593 11.7218 9.47707L11.0127 7.85284C11.2618 7.67317 11.4247 7.3809 11.4247 7.05031V7.04791ZM19.1506 38.2173C18.9038 38.0161 18.6116 37.87 18.2906 37.7957L17.4784 37.7645C17.3323 37.7861 17.191 37.8244 17.0568 37.8747L13.7341 30.8436C13.9521 30.7262 14.1365 30.5561 14.2683 30.3501L22.768 33.7279L19.1482 38.2197L19.1506 38.2173ZM26.2656 35.2899L19.6441 38.7971C19.5746 38.6797 19.4955 38.5695 19.4069 38.4665L23.1153 33.8621L26.2775 35.1174C26.268 35.1701 26.2632 35.2252 26.2632 35.2803C26.2632 35.2827 26.2632 35.2851 26.2632 35.2899H26.2656ZM32.7026 30.6951L30.5226 30.6304C30.4747 30.7789 30.422 30.9155 30.3597 31.0448L32.6786 31.1143C32.6858 31.3611 32.7313 31.6006 32.8104 31.8234L27.8203 34.4682C27.6598 34.358 27.4658 34.2909 27.2573 34.2909C26.9148 34.2909 26.6129 34.4658 26.4357 34.7293L23.3956 33.5219L24.1119 32.6331C24.0616 32.6283 24.0089 32.6212 23.961 32.6164C23.8747 32.6044 23.7909 32.5876 23.707 32.5684L23.0506 33.3854L14.4528 29.9692C14.4863 29.8662 14.5151 29.7344 14.527 29.6003H14.5198C14.5198 29.5835 14.5246 29.5667 14.5246 29.55C14.5246 29.5068 14.5198 29.4661 14.5175 29.4254L18.9278 27.2214L18.6858 26.8717L14.4192 29.0038C14.3138 28.7426 14.1365 28.5175 13.9114 28.357L16.4747 23.6711L16.2495 23.3429L13.5999 28.1845C13.4322 28.1174 13.2502 28.0791 13.0561 28.0791C12.9411 28.0791 12.8285 28.0934 12.7231 28.1198V30.9586C12.7231 30.9586 12.7231 30.9706 12.7231 30.9778C12.8309 31.0041 12.9411 31.0185 13.0585 31.0185C13.1807 31.0185 13.2981 30.9993 13.4131 30.9706L16.7454 38.0257C16.4675 38.1862 16.2279 38.409 16.0483 38.6725L10.5551 35.2995C10.5886 35.194 10.6102 35.0815 10.6102 34.9641C10.6102 34.6646 10.488 34.3939 10.2916 34.1999L11.3001 32.6667C11.2235 32.6763 11.1444 32.6834 11.063 32.6834H10.7875L9.94182 33.9699C9.81725 33.9196 9.6807 33.8908 9.53935 33.8908C9.2423 33.8908 8.97399 34.0106 8.77994 34.2071L4.47502 31.5623C4.65229 31.2293 4.75291 30.8508 4.75291 30.4483C4.75291 30.0459 4.66187 29.7057 4.49897 29.3847L6.64545 28.0264V27.5281L4.27618 29.0277C4.1013 28.7977 3.88809 28.5989 3.64134 28.4432L6.64545 22.0924V21.2611L3.32751 28.2779C3.14066 28.1964 2.94422 28.1413 2.7358 28.1102V21.769C3.08316 21.6133 3.32272 21.2683 3.32272 20.8635C3.32272 20.8587 3.32272 20.8539 3.32272 20.8491L6.0705 20.2142C6.18549 20.5305 6.38672 20.8036 6.64305 21.012V18.1851C6.22861 18.5181 5.9603 19.026 5.9603 19.601C5.9603 19.6704 5.96509 19.7375 5.97228 19.8046L3.2269 20.4394C3.12628 20.2262 2.94901 20.0537 2.7334 19.9579V14.1821C3.24606 14.0958 3.69644 13.8299 4.01506 13.449L6.64305 17.7348V17.0544L4.23545 13.1304C4.41033 12.8214 4.51095 12.4644 4.51095 12.0835C4.51095 11.9661 4.49897 11.8535 4.4822 11.7433L7.29466 11.6164C7.35934 11.5229 7.42881 11.4367 7.50547 11.3552C7.54141 11.3169 7.58213 11.2834 7.62046 11.245L4.39596 11.3912C4.38159 11.3481 4.36721 11.3073 4.35044 11.2642L9.82204 7.8217C9.99213 7.96064 10.2101 8.04449 10.4473 8.04449C10.5144 8.04449 10.5791 8.0373 10.6413 8.02533L11.348 9.64716C11.0702 9.81725 10.8545 10.0784 10.7372 10.3874H12.3614C12.807 10.3874 13.1807 10.409 13.5017 10.4497C13.437 10.2556 13.3364 10.076 13.2023 9.92745L16.8532 4.54209C17.0951 4.6499 17.3587 4.71698 17.6341 4.73614L18.0582 4.72656C18.0797 4.72656 18.1013 4.71937 18.1229 4.71698L19.3997 8.9141C19.0068 9.16324 18.7409 9.59446 18.7194 10.088L18.7457 10.4425C18.7793 10.6006 18.8344 10.7515 18.9134 10.8857L17.6341 11.8224L16.3956 12.7303L16.5968 13.0226L17.3251 12.4884L17.9887 12.0021L19.1218 11.1708C19.3686 11.4271 19.704 11.5876 20.0801 11.614L21.8097 18.4271L20.7365 19.0236L20.9401 19.3183L21.9007 18.784L22.6745 21.8337L23.2543 22.6745L22.2218 18.6044L24.7324 17.2077V16.8005L22.1331 18.2474L20.4466 11.5972C20.6311 11.5637 20.7988 11.4942 20.9521 11.3984L24.7324 15.5188V14.9942L21.23 11.178C21.4264 10.9791 21.5654 10.7228 21.6229 10.4377L25.3672 10.7156C25.566 10.5623 25.8032 10.4593 26.0715 10.4114L21.6444 10.0808C21.6348 9.86756 21.5749 9.66872 21.4839 9.48665L25.0055 7.53902C25.1803 7.69473 25.4103 7.79056 25.6643 7.79056C25.8487 7.79056 26.0236 7.73785 26.1721 7.64921C26.2799 7.70192 26.3925 7.74264 26.5147 7.76899L32.257 10.8713L30.1584 10.7156C30.2974 10.821 30.4172 10.9504 30.513 11.0989L33.0236 11.2858L33.1242 11.3409C33.1122 11.4295 33.1027 11.5205 33.1027 11.614C33.1027 11.7841 33.1266 11.9494 33.1673 12.1099L30.7933 13.4298V13.8371L33.2871 12.45C33.4452 12.7926 33.6944 13.0849 34.0058 13.2933L30.7957 19.6105V22.8853L33.6848 29.1164C33.1721 29.4829 32.8104 30.0483 32.7146 30.6999L32.7026 30.6951ZM34.691 28.6995C34.437 28.7379 34.1975 28.8145 33.9771 28.9271L30.9514 22.4014C31.3107 22.1571 31.5479 21.7426 31.5503 21.2755L34.0058 21.4001C33.9986 21.448 33.9938 21.4983 33.9938 21.5486C33.9938 21.9942 34.2861 22.3703 34.691 22.4949V28.6995ZM34.691 20.6023C34.4777 20.6694 34.2957 20.806 34.1711 20.988L31.4808 20.8515C31.3826 20.5496 31.1814 20.2933 30.9179 20.1256L34.3053 13.461C34.4274 13.5137 34.5568 13.5568 34.691 13.5832V20.6023Z" fill="#C6FA58"/>
<path d="M12.7158 23.6754V24.1737L15.5666 22.3674L15.327 22.0225L12.7158 23.6754Z" fill="#C6FA58"/>
<path d="M12.7158 19.8633V20.2226L14.2538 20.4694L13.9759 20.0645L12.7158 19.8633Z" fill="#C6FA58"/>
<path d="M44.75 12.5371H50.351C56.4023 12.5371 60.3024 15.5484 60.3024 22.3591C60.3024 29.1699 56.4023 32.3537 50.6025 32.3537H44.75V12.5371ZM50.0803 28.7459C53.4413 28.7459 55.7124 27.0977 55.7124 22.3591C55.7124 17.6206 53.4413 16.1449 50.0803 16.1449H49.2298V28.7459H50.0803Z" fill="#C6FA58"/>
<path d="M62.8086 24.8141C62.8086 19.9198 66.299 16.9014 69.9236 16.9014C74.2189 16.9014 76.3486 20.0253 76.3486 24.1409C76.3486 24.9459 76.248 25.7508 76.1618 26.1149H67.1375C67.5375 28.3021 69.0372 29.3083 71.0495 29.3083C72.1898 29.3083 73.2176 28.9609 74.3124 28.3213L75.7905 31.0164C74.2453 32.0872 72.2282 32.7149 70.4386 32.7149C66.1385 32.7149 62.8086 29.8066 62.8086 24.8141ZM72.53 23.1611C72.53 21.5034 71.8089 20.3079 70.0242 20.3079C68.6108 20.3079 67.3938 21.2542 67.0896 23.1611H72.5324H72.53Z" fill="#C6FA58"/>
<path d="M79.8047 12.5371H92.3098V16.2934H84.2845V20.8882H91.1408V24.6445H84.2845V32.3512H79.8047V12.5347V12.5371Z" fill="#C6FA58"/>
<path d="M95.0166 12.7244C95.0166 11.3541 96.1042 10.3887 97.6039 10.3887C99.1035 10.3887 100.191 11.3541 100.191 12.7244C100.191 14.0947 99.1035 15.0601 97.6039 15.0601C96.1042 15.0601 95.0166 14.0827 95.0166 12.7244ZM95.364 17.2665H99.8342V32.3493H95.364V17.2665Z" fill="#C6FA58"/>
<path d="M45.3438 5.36621H45.9115L47.4758 8.08524L47.943 8.9812H47.9693C47.9406 8.5452 47.8999 8.05649 47.8999 7.60612V5.36861H48.4221V9.6927H47.8544L46.29 6.97128L45.8229 6.07771H45.7965C45.8253 6.51611 45.866 6.97607 45.866 7.42884V9.6927H45.3438V5.36861V5.36621Z" fill="#C6FA58"/>
<path d="M49.4834 8.09428C49.4834 7.05218 50.1853 6.41016 50.9232 6.41016C51.7401 6.41016 52.2024 6.99708 52.2024 7.91221C52.2024 8.0272 52.1928 8.14219 52.1761 8.22124H50.02C50.0583 8.8992 50.4728 9.34 51.0837 9.34C51.3903 9.34 51.6442 9.24178 51.8814 9.08367L52.0755 9.43822C51.7952 9.62268 51.4526 9.77121 51.0166 9.77121C50.1638 9.77121 49.4834 9.14595 49.4834 8.09428ZM51.7233 7.83315C51.7233 7.19113 51.4334 6.84137 50.9327 6.84137C50.4824 6.84137 50.0799 7.20311 50.0152 7.83315H51.7233Z" fill="#C6FA58"/>
<path d="M53.1543 6.48921H53.6023L53.6478 6.85814H53.667C53.9568 6.61857 54.3162 6.41016 54.6875 6.41016C55.514 6.41016 55.9572 7.05218 55.9572 8.04157C55.9572 9.13398 55.3008 9.77121 54.5701 9.77121C54.2778 9.77121 53.976 9.63706 53.6813 9.39989L53.6957 9.95807V11.0433H53.1543V6.48921ZM55.3966 8.04637C55.3966 7.33966 55.1546 6.86533 54.5533 6.86533C54.2826 6.86533 54.0095 7.01385 53.6981 7.30133V8.98066C53.988 9.22501 54.2659 9.31365 54.4791 9.31365C55.0085 9.31365 55.399 8.83692 55.399 8.04637H55.3966Z" fill="#C6FA58"/>
<path d="M56.6845 8.8618C56.6845 8.16468 57.2858 7.81492 58.6513 7.66639C58.6513 7.25434 58.5123 6.85667 57.9901 6.85667C57.6188 6.85667 57.2858 7.03155 57.0342 7.19925L56.821 6.82792C57.1157 6.63388 57.5661 6.40869 58.0787 6.40869C58.8597 6.40869 59.1903 6.92854 59.1903 7.72628V9.69069H58.7423L58.6968 9.30739H58.6776C58.3734 9.56132 58.0164 9.76974 57.6188 9.76974C57.0822 9.76974 56.6797 9.43675 56.6797 8.85941L56.6845 8.8618ZM58.6537 8.90972V8.02094C57.5804 8.15031 57.2163 8.41383 57.2163 8.82348C57.2163 9.18761 57.4631 9.33614 57.7769 9.33614C58.0907 9.33614 58.3422 9.18521 58.6513 8.91211L58.6537 8.90972Z" fill="#C6FA58"/>
<path d="M60.3713 8.70082V6.93046H59.8945V6.52081L60.3952 6.48967L60.4599 5.59131H60.9127V6.48967H61.7799V6.93046H60.9127V8.71041C60.9127 9.10089 61.0396 9.32848 61.4086 9.32848C61.5212 9.32848 61.6697 9.28536 61.7727 9.24223L61.8781 9.65188C61.6984 9.71177 61.4828 9.77166 61.284 9.77166C60.6012 9.77166 60.3713 9.34046 60.3713 8.70322V8.70082Z" fill="#C6FA58"/>
<path d="M62.6689 4.99654H63.2104V6.28059L63.1912 6.93939C63.4906 6.64952 63.8141 6.40995 64.2548 6.40995C64.9304 6.40995 65.2323 6.84595 65.2323 7.66286V9.69195H64.6908V7.73234C64.6908 7.13583 64.5112 6.8795 64.0872 6.8795C63.759 6.8795 63.5338 7.04719 63.2104 7.3706V9.68956H62.6689V4.99414V4.99654Z" fill="#C6FA58"/>
<path d="M66.0978 11.0064L66.2032 10.5752C66.2655 10.5968 66.3638 10.6231 66.4476 10.6231C66.8093 10.6231 67.0369 10.3333 67.1687 9.93558L67.2405 9.69841L65.9541 6.48828H66.5123L67.1663 8.26104C67.2669 8.53893 67.3747 8.86713 67.4777 9.16419H67.5041C67.5951 8.87192 67.6861 8.54372 67.7724 8.26104L68.3425 6.48828H68.8744L67.667 9.95474C67.4418 10.5896 67.1112 11.0711 66.4668 11.0711C66.3182 11.0711 66.1937 11.0447 66.0906 11.004L66.0978 11.0064Z" fill="#C6FA58"/>
<path d="M69.331 8.8618C69.331 8.16468 69.9323 7.81492 71.2978 7.66639C71.2978 7.25434 71.1588 6.85667 70.6366 6.85667C70.2653 6.85667 69.9323 7.03155 69.6807 7.19925L69.4675 6.82792C69.7622 6.63388 70.2125 6.40869 70.7252 6.40869C71.5062 6.40869 71.8368 6.92854 71.8368 7.72628V9.69069H71.3888L71.3433 9.30739H71.3241C71.0199 9.56132 70.6629 9.76974 70.2653 9.76974C69.7286 9.76974 69.3262 9.43675 69.3262 8.85941L69.331 8.8618ZM71.2978 8.90972V8.02094C70.2245 8.15031 69.8604 8.41383 69.8604 8.82348C69.8604 9.18761 70.1071 9.33614 70.421 9.33614C70.7348 9.33614 70.9863 9.18521 71.2954 8.91211L71.2978 8.90972Z" fill="#C6FA58"/>
<path d="M75.2603 5.39795H76.4222L77.7709 9.69329H76.7432L76.1802 7.51807C76.0604 7.08925 75.9455 6.58138 75.8305 6.1334H75.8041C75.7011 6.58617 75.5861 7.08925 75.4663 7.51807L74.901 9.69329H73.9092L75.2579 5.39795H75.2603ZM74.8003 7.91574H76.8678V8.67037H74.8003V7.91574Z" fill="white"/>
<path d="M78.2461 5.4376C78.2461 5.14055 78.4809 4.93213 78.8067 4.93213C79.1325 4.93213 79.3672 5.14055 79.3672 5.4376C79.3672 5.73466 79.1325 5.94308 78.8067 5.94308C78.4809 5.94308 78.2461 5.73227 78.2461 5.4376ZM78.3228 6.4222H79.2906V9.69222H78.3228V6.4222Z" fill="white"/>
<defs>
<filter id="filter0_d_1436_9261" x="64.5889" y="0.255859" width="24.5742" height="22.7007" filterUnits="userSpaceOnUse" color-interpolation-filters="sRGB">
<feFlood flood-opacity="0" result="BackgroundImageFix"/>
<feColorMatrix in="SourceAlpha" type="matrix" values="0 0 0 0 0 0 0 0 0 0 0 0 0 0 0 0 0 0 127 0" result="hardAlpha"/>
<feOffset dy="4"/>
<feGaussianBlur stdDeviation="4"/>
<feComposite in2="hardAlpha" operator="out"/>
<feColorMatrix type="matrix" values="0 0 0 0 0 0 0 0 0 0 0 0 0 0 0 0 0 0 0.08 0"/>
<feBlend mode="normal" in2="BackgroundImageFix" result="effect1_dropShadow_1436_9261"/>
<feBlend mode="normal" in="SourceGraphic" in2="effect1_dropShadow_1436_9261" result="shape"/>
</filter>
</defs>
</svg>
